<?xml version="1.0" ?><!DOCTYPE svg  PUBLIC '-//W3C//DTD SVG 20010904//EN'  'http://www.w3.org/TR/2001/REC-SVG-20010904/DTD/svg10.dtd'><svg xmlns="http://www.w3.org/2000/svg" version="1.0" width="512.000000pt" height="512.000000pt" viewBox="0 0 512.000000 512.000000" preserveAspectRatio="xMidYMid meet" transform="rotate(270 256 256)">

<g transform="translate(0.000000,512.000000) scale(0.100000,-0.100000) rotate(270, 256, 256)" fill="#000000" stroke="none">
<path d="M3045 4849 c-27 -11 -141 -51 -252 -89 -219 -75 -296 -109 -389 -176 -245 -173 -304 -453 -130 -612 70 -63 126 -92 282 -145 206 -71 286 -117 329 -192 56 -95 18 -150 -182 -263 -169 -96 -294 -186 -410 -296 -196 -186 -283 -339 -283 -499 0 -150 54 -226 234 -330 60 -34 118 -75 130 -90 35 -47 27 -174 -43 -680 -83 -606 -80 -576 -45 -616 58 -65 161 -45 184 36 13 49 150 1092 150 1147 0 70 -20 158 -48 210 -35 64 -90 111 -200 169 -50 26 -102 61 -116 78 -69 82 4 245 187 415 102 95 189 157 371 265 95 56 181 115 213 146 151 146 141 339 -26 503 -77 76 -157 119 -336 180 -225 77 -289 130 -265 219 13 51 74 128 136 173 79 57 159 93 378 167 114 39 222 78 240 86 70 34 85 124 28 177 -38 36 -77 41 -137 17z" fill="#FFFFFF" transform="rotate(270 256.0 256.0)"/>
<path d="M1554 1431 c-53 -32 -59 -71 -29 -177 71 -244 231 -556 378 -739 79 -97 183 -197 232 -222 74 -38 173 -43 245 -12 110 47 637 439 1057 788 169 139 190 165 176 223 -8 34 -51 75 -84 82 -41 8 -75 -8 -139 -63 -218 -189 -505 -416 -750 -593 -256 -185 -339 -238 -370 -238 -36 0 -80 38 -161 136 -150 184 -273 406 -352 639 -59 172 -55 164 -88 180 -38 20 -78 19 -115 -4z" fill="#FFFFFF"/>
</g>
</svg>