<svg viewBox="0 0 442.23 703.05" xmlns="http://www.w3.org/2000/svg"><g fill="#fff"><path d="m30.91 561.12c-.95.68-2.04 1.22-2.83 2.05-4.36 4.6-8.98 6.9-14.17.86-3.39-3.94-6.68-7.9-7.06-13.37-.07-1.05.15-2.53.84-3.17 6.15-5.67 12.44-11.18 18.64-16.8.46-.42.5-1.3.74-1.97-.79-.22-1.75-.84-2.33-.59-2.74 1.18-5.4 2.56-8.04 3.95-2 1.05-3.48 1.59-4.91-1.14-1.65-3.15-4.17-5.82-6.02-8.88-1.55-2.57-3.9-5 1.37-7.12 4.76-1.92 8.67-5.83 13.17-8.5 4.78-2.84 9.82-5.25 14.75-7.83 2.34-1.22 4.66-2.49 7.06-3.56 4.24-1.89 8.54-3.64 12.81-5.46 1.32-.56 2.69-1.05 3.95-1.74 6.7-3.69 13.63-6.82 19.35-12.29 7.79-7.45 15.69-15.16 24.79-20.73 5.64-3.46 9.58-8.55 15.12-11.73 1.1-.63 2.96-.88 4.05-.39 2.34 1.07 4.42 2.71 6.59 4.16 3.62 2.43 7.32 4.75 10.79 7.38 2.41 1.82 2.24-.32 2.05-1.32-.41-2.21-.98-4.47-1.99-6.46-3.34-6.58-3.77-13.59-4.13-20.78-.22-4.33-2.21-8.54-2.76-12.89-.62-4.89-1.02-9.92-.55-14.79.3-3.13.12-4.6-2.99-5.99-2.98-1.33-5.41-3.87-8.09-5.88.53-1.1 1.3-3.21 1.57-3.14 4.68 1.09 9.25 2.68 13.95 3.68 6.9 1.47 13.83 2.97 20.83 3.71 8.17.86 16.43 1.01 24.66 1.28 3.82.13 7.66-.18 11.49-.28 1.04-.03 2.07 0 3.11 0 7.28-.03 14.58 1.48 21.84-.65 2.55-.75 5.33-.84 8.01-1.02 1.67-.11 3.42.5 5.04.24 5.25-.83 10.43-2.14 15.69-2.84 4.1-.55 8.51.63 11.82-3.15.61-.7 2.28-.54 3.48-.65 4.17-.39 7.97-4.19 12.52-1.42.08.05.41-.44.67-.56 4.34-2.03 8.69-4.04 13.04-6.06 5.06 1.61 8.06-2.69 12.03-4.21 2.48-.6 4.95-1.21 7.43-1.81.66-.51 1.32-1.03 1.98-1.54 3.28-1.08 6.58-2.09 9.82-3.29.58-.22 1.16-1.16 1.26-1.84 1.58-10.52 3.09-21.05 4.6-31.58.12-.85.19-1.7.28-2.55-1 .01-2.13-.26-2.99.09-3.22 1.32-6.35 2.84-9.52 4.28-1.29.8-2.58 1.59-3.87 2.39-1.76.61-3.52 1.21-5.27 1.82-3.52-.65-6.89-.8-9.91 1.77-.54.46-1.96-.26-2.93-.1-.71.12-1.34.77-2 1.19-6.23 3.5-13.41 2.92-20.09 4.45-10.53 2.4-21.38 3.35-32.07 5.06-4.26.68-8.42 2.11-12.7 2.61-6.99.81-14.06.87-21.04 1.72-8.53 1.05-17.35-.73-25.63 2.69-.35.14-.87-.06-1.3-.17-6.65-1.69-13.29-2.72-20.12-.75-1.62.47-3.55-.06-5.32-.25-2-.22-4.02-.95-5.97-.78-4.12.35-8.2 1.2-12.31 1.68-.79.09-1.79-.45-2.48-.98-1.64-1.27-2.96-3.11-4.76-4-4-1.97-8.2-3.56-12.37-5.18-1.74-.68-3.61-1.02-5.43-1.51.28 1.71.61 3.4.82 5.12s.04 3.52.46 5.18c2.19 8.76 3.02 17.59 1.72 26.57-4.23-.98-6.82-4.15-7.58-7.87-1.85-8.99-4.74-17.9-3.37-27.33.46-3.18-1.16-6.73 2.06-9.35.46-.38.61-1.38.59-2.09-.14-5.51 2.64-9.75 7.18-12.36 3.73-2.15 6.69-5.7 11.58-5.47.48.02 1.01-.92 1.52-1.42-.53-.45-1.02-.96-1.59-1.34-5.92-3.88-11.8-7.8-17.82-11.51-.86-.53-2.41-.07-3.62.12-1.12.18-2.17.75-3.29.9-1.53.21-3.09.19-4.64.27.85-.92 1.77-1.78 2.52-2.78 2.65-3.54-1.21-4.79-2.76-5.91-3.85-2.79-8.22-4.88-12.45-7.13-1.7-.91-3.37-1.59-5.29.17-1.03.94-2.94.93-4.45 1.34.03-1.38-.25-2.87.17-4.12.75-2.24 0-2.89-2.01-4.04-12-6.89-23.62-14.39-34.06-23.52-1.7-1.49-2.92-3.85-3.65-6.05-.83-2.53.12-4.25 3.16-5.29 7.26-2.49 14.08-.15 21.07.97 7.02 1.13 12.89 4.78 19.11 7.81 5.96 2.91 12.28 5.09 18.48 7.51.62.24 1.44-.01 2.16-.04-.14-.8-.14-1.66-.45-2.39-.34-.81-.87-1.58-1.48-2.23-2.58-2.77-5.63-5.2-7.7-8.3-1.57-2.37-3.44-2.61-5.68-2.7-3.7-.14-4.6-1.41-2.57-4.45 1.61-2.41 1.18-3.41-.88-5.53-3.54-3.65-5.95-8.38-9.29-12.27-.9-1.04-3.43-.72-5.22-.94-.85-.11-1.78.18-2.56-.08-1.25-.41-2.41-1.12-3.61-1.71 1.42-.83 2.81-1.73 4.27-2.48.82-.42 1.76-.59 2.64-.87-.38-.57-.82-1.11-1.12-1.71-2.71-5.43-6.87-9.59-11.2-13.75-2.56-2.46-3.89-6.19-5.94-9.23-.81-1.2-2.1-2.76-3 .12-.08.25-.39.58-.64.61-2.61.42-5.23.79-7.84 1.17 1.66-1.21 3.18-2.77 5.02-3.54 3.64-1.52 4.61-2.37 1.18-5.91-4.82-4.99-9.34-10.64-12.4-16.8-1.66-3.34-3.03-2.73-5.49-2.96-3.08-.28-6.14-1.23-9.1-2.21-2.21-.73-2.48-2.04-.26-3.43 2.42-1.52 4.76-3.17 7.14-4.76-1.57-2.29-3.22-4.52-4.68-6.87-4.16-6.7-8.35-13.39-12.25-20.24-.87-1.53-1.44-4.8-.69-5.37 1.45-1.11 3.98-1.33 5.96-1.1 8.49 1 14.07 7.62 21.1 11.48 6.74 3.7 12.91 8.43 19.25 12.82 2.32 1.61 4.37 3.6 6.62 5.31 1.12.85 2.41 1.46 3.62 2.18.37-1.27.81-2.52 1.08-3.81.15-.73-.12-1.57.08-2.27.18-.63.75-1.15 1.15-1.72.43.41 1.13.76 1.25 1.25.72 2.87 1.28 5.79 1.97 8.68.28 1.2.37 2.9 1.17 3.44 6.61 4.45 11.36 10.77 16.9 16.3.8.8 1.92 1.26 2.89 1.89.12-1.02.23-2.04.36-3.05.26-2.05.49-4.12.83-6.16.13-.78.53-1.52.81-2.28.65.72 1.76 1.39 1.85 2.17.33 2.68 1.11 5.7.25 8.05-1.76 4.77 1.78 7.29 3.78 10.08 2.01 2.8 5.41 4.62 8.22 6.83.34.27.98.23 1.24.54 1.98 2.4 2.24 2.36 3.56-.36.45-.93 1.16-1.74 1.75-2.6.48 1.07 1.6 2.35 1.33 3.17-1.86 5.56.68 8.28 5.1 11.56 4.87 3.62 8.32 9.15 12.44 13.8 1.97 2.23 4.02 4.4 6.15 6.46.44.42 1.54.53 2.13.28.36-.15.53-1.3.41-1.93-.78-3.88-1.69-7.73-2.51-11.61-.29-1.36-.18-2.85-.69-4.11-1.19-2.89-.03-7.08-4.69-8.21-1.05-.25-1.67-2.25-2.49-3.44.99-.18 2.01-.26 2.95-.59.4-.14.94-.84.88-1.2-1.54-8.92-3.04-17.86-4.9-26.72-.19-.91-2.64-1.32-4-2.03-.85-.44-1.63-1-2.44-1.51.68-.71 1.33-1.99 2.05-2.03 3.7-.21 3.05-2.61 2.58-4.81-1.69-7.91-3.21-15.87-5.38-23.65-.6-2.16-3.29-3.7-4.9-5.63-.48-.57-.51-1.51-.75-2.29.64 0 1.36.19 1.89-.05.81-.37 2.14-1.09 2.11-1.59-.21-3.23-.79-6.44-1.12-9.67-.39-3.85-.83-7.72-.85-11.58 0-1.09 1.21-2.38 2.16-3.26 2.31-2.14 4.41-2.74 6.56.61 4.25 6.61 9.29 12.68 12.26 20.14 1.73 4.36 4.73 8.2 6.86 12.42 1.05 2.07 2.06 2.6 4.13 1.56.61-.31 1.59.1 2.4.19-.29.64-.4 1.56-.9 1.87-3.36 2.13-2.07 4.38-.64 7.05 2.32 4.32 4.35 8.81 6.34 13.3 1.03 2.32 2.23 2.87 4.61 1.72.95-.46 2.43.2 3.67.35-.42 1.25-.47 3.14-1.33 3.65-3.79 2.25-2.37 5.29-1.26 7.92 1.42 3.34 3.76 6.29 5.24 9.61 2.72 6.07 5.1 12.3 7.65 18.45 3.44 8.32 6.89 16.63 10.36 24.93.17.4.59.68.8 1.07.73 1.37 1.43 2.75 2.14 4.13.48-1.68 1.26-3.34 1.39-5.05.58-7.4 1.1-14.8 1.4-22.22.41-10.14.53-20.3.9-30.44.19-5.25.58-10.49 1.05-15.73.18-2.03-.25-2.91-2.4-2.33-1.91.51-3.81 1.07-5.75 1.42-.79.14-1.68-.22-2.52-.35.36-.74.54-1.72 1.12-2.18 1.99-1.58 3.97-3.86 6.24-4.25 3.22-.56 3.04-2.5 3.08-4.5.18-8.55.02-17.11.43-25.64.14-2.97-.91-4.44-3.07-6.09-1.5-1.15-2.27-3.23-3.37-4.89 1.6-.52 3.29-.86 4.76-1.62 1.03-.53 2.44-1.58 2.52-2.49.86-10.32 1.45-20.66 2.2-30.99.18-2.43.11-5.09 1.1-7.21 2-4.27-1.94-5.45-3.44-7.9-.56-.91-1.18-1.78-1.78-2.67 1.1-.17 2.42-.81 3.27-.42 3.26 1.5 4.5 1.37 4.7-2.91.4-8.51 1.55-16.98 2.51-25.46.38-3.39 1.12-6.73 1.62-10.1.39-2.66.38-5.41 1.05-7.99 1.26-4.84 5.75-3.73 9.02-4 3.07-.25 4.31 2.53 5.08 5.29 1.18 4.24 2.53 8.44 3.8 12.66.04.15.11.29.13.44.77 6.97 1.41 13.96 2.33 20.92.59 4.48 1.56 8.9 2.4 13.34 1.47 7.75 3.24 15.46 4.33 23.27.39 2.81 1.21 2.67 3.35 2.35 2.24-.33 4.56-.08 6.85-.08-1.74 1.7-3.2 4.13-5.29 4.91-2.98 1.12-2.99 2.44-3.25 5.37-.84 9.17 1.76 17.94 2.08 26.92.11 3.04-.82 6.11-.85 9.18-.02 2.42.69 4.83.96 7.26.82 7.58 1.56 15.16 2.38 22.74.19 1.77-.57 5.08 3 1.87.86-.77 2.6-.91 3.86-.73.57.08 1.49 2.24 1.28 2.44-1.77 1.69-3.83 3.07-5.64 4.72-.64.58-1.23 1.67-1.18 2.48.23 3.75.59 7.51 1.13 11.22.22 1.5 1.28 2.88 1.51 4.38.54 3.51.81 7.06 1.2 10.59.69 6.25 1.41 12.5 2.06 18.76.2 1.91.09 3.85.37 5.74.21 1.42.82 2.78 1.26 4.17.91-1.29 2.5-2.51 2.63-3.87.7-7.43 4.09-13.99 6.32-20.93.13-.42-.19-1.1-.5-1.5-.24-.31-.92-.25-1.18-.56-1.56-1.83-3.06-3.71-4.57-5.57 2.3-.29 4.76-1.22 6.87-.71 2.65.64 3.25.14 3.88-2.4 1.98-7.91 4.21-15.76 6.61-23.56.68-2.2 2.19-4.15 3.41-6.16 1.65-2.71 1.54-4.7-1.87-5.86-1.52-.51-2.95-1.39-4.29-2.29-.86-.58-1.48-1.51-2.21-2.28 1.13-.54 2.25-1.49 3.4-1.53 2.2-.08 4.44.65 6.61.46.91-.08 2.5-1.73 2.41-2.5-.54-4.55 2.51-7.69 3.93-11.46 1.72-4.57 2.84-9.37 4.5-13.96 2.85-7.9 5.99-15.69 8.88-23.58.98-2.67 1.73-5.47 2.18-8.27.1-.66-1.41-1.63-2.26-2.37-1.46-1.28-3.14-2.34-4.4-3.78-.93-1.06-1.34-2.58-1.98-3.89 1.54.03 3.13-.17 4.6.16 1.11.25 2.04 1.56 3.11 1.66 1.09.1 2.92-.41 3.29-1.19 2.62-5.5 6.17-10.95 7.06-16.78 1.31-8.5 5.59-15.7 7.98-23.66 1.64-5.46 2.98-11.04 4.95-16.38 2.43-6.61 4.19-13.44 10.79-18.02 2.93-2.03 4.66-4.62 8.62-3.01 3.59 1.46 7.1 7.53 7 11.2-.22 8.64 0 17.28 0 25.93 0 1.5.01 3.05-.33 4.49-.72 3.06-2.16 5.72-.81 9.33.83 2.22-1.14 5.41-1.58 8.2-.32 2.02-.65 4.17 2.99 3.03 1.61-.5 3.73.64 5.62 1.04-1.43 1.37-2.72 3.7-4.32 3.94-8.12 1.22-5.3 8.02-6.64 12.53-1.32 4.43-1.45 9.23-2.89 13.61-1.16 3.55-.56 5.25 3.01 6.08.86.2 1.58.94 2.37 1.44-.78.41-1.54 1.13-2.34 1.18-1.73.12-2.29.56-2.5 2.53-.54 5.27-1.47 10.51-2.54 15.7-.34 1.68-1.99 3.09-2.33 4.77-.89 4.41-1.44 8.89-2.01 13.35-.1.79.35 1.65.55 2.47.73-.47 1.64-.8 2.16-1.45 2.07-2.57 3.8-5.46 6.09-7.81 2.06-2.12 4.85-3.51 7.01-5.54 3.31-3.1 6.25-6.6 9.54-9.71 2.51-2.38 5.23-4.57 8.05-6.58 6.51-4.65 13.08-9.22 19.74-13.65 4.14-2.76 8.36-5.44 12.76-7.73 2.64-1.38 5.6-2.75 8.56.05 3.28 3.09 2.71 9.28-1.25 13.62-2.53 2.76-5.01 5.64-7.01 8.79-3.93 6.16-7.41 12.59-11.27 18.8-1.51 2.43-3.52 4.54-5.29 6.81-.95 1.22-2.36 2.38.68 2.91 1.01.18 1.78 1.71 2.66 2.62-1.09.23-2.19.68-3.28.66-5.55-.08-7.01 4.72-9.84 7.96-2.05 2.35-2.34 3.75 1.17 4.76.95.27 1.51 1.94 2.24 2.97-1.47.58-3.19 1.97-4.37 1.61-5.11-1.59-6.39 1.25-7.34 5.29-.35 1.5-1.67 2.8-2.62 4.14-4.26 5.99-8.54 11.97-12.81 17.95-.14.45-.27.9-.41 1.35.37-.1.74-.2 1.1-.3 2.58-1.82 5.3-3.49 7.72-5.5 3.39-2.83 5.67-6.84 10.52-8.1 2.27-.59 3.92-3.29 6.07-4.71 5.53-3.67 11.54-6.7 16.69-10.83 7.59-6.1 15.98-10.65 24.63-14.9 6.43-3.15 12.58-6.99 19.23-9.56 4.48-1.73 9.28-4.69 14.58-1.19 3.11 2.05 4.13 6.21 1.53 8.98-3.73 3.97-7.44 7.96-11.31 11.79-3.63 3.6-7.45 7.01-11.17 10.52-4.85 4.58-8.94 9.97-14.7 13.59-1.25.78-2.26 2.04-3.15 3.24-.29.39-.09 1.53.3 1.94 1.49 1.57 3.23 2.91 4.7 4.5.72.78 1.03 1.92 1.53 2.9-.97.36-1.99 1.15-2.89 1.02-3.8-.53-7.54-1.45-11.34-1.96-.98-.13-2.25.47-3.11 1.1-2.2 1.63-4.27 3.45-6.36 5.23-1.27 1.08-2.54 2.17-3.67 3.39-.8.87-1.24 2.08-2.04 2.94-1.58 1.71-3.31 3.28-4.98 4.91 1.76 1.08 3.56 2.11 5.28 3.25.57.38.96 1.04 1.43 1.57-.62.25-1.23.67-1.87.73-1.21.11-2.44.01-3.66 0-2.45-.01-4.86-3.93-7.36-.03-1.36 2.14-2.8 4.23-4.22 6.33-.39.57-.7 1.32-1.26 1.64-4.73 2.7-4.71 2.64-.95 6.91.71.81 1.01 1.98 1.5 2.99-1.08-.13-2.26-.02-3.22-.42-6.68-2.79-8.7-1.87-11.92 5.13-.7 1.51-2.24 2.64-3.45 3.89-.48.49-1.28.72-1.64 1.26-2.84 4.28-6.09 8.17-9.84 11.69-.7.66-.59 2.74-.15 3.91.51 1.35 1.82 2.39 2.72 3.6.93 1.25 1.79 2.55 2.68 3.83-1.57-.47-3.34-.61-4.65-1.46-2.92-1.91-4.26-3.11-7.86.61-4.23 4.37-6.56 10-11.26 13.99-3.18 2.69-5.02 7.02-7.21 10.76-.66 1.13-.47 2.77-.66 4.17 1.4.13 2.83.16 4.21.41 4.31.78 8.8 1.11 12.84 2.63 4.68 1.76 9 4.5 13.36 7.01.94.54 1.65 1.86 2.01 2.97 1.79 5.42 2.27 10.88 2.08 16.72-.26 8.07-4.19 15.35-3.93 23.39.02.57-.18 1.25-.51 1.72-3.53 5.05-4.76 10.73-4.97 16.77-.03.9-.93 1.81-1.52 2.65-5.04 7.18-12.85 10.6-20.25 14.4-2.42 1.25-6 .42-6.12 4.6-.03 1.18-.21 2.41.01 3.55 1.61 8.24 3.75 16.43 2.42 24.95-.13.84-.35 1.71-.72 2.47-1.72 3.5-3.56 6.94-5.22 10.46-.32.67-.09 1.64.01 2.46.27 2.18.5 4.37.95 6.52.39 1.89 1.04 3.73 1.58 5.6 1.32-.55 2.7-.99 3.96-1.66 5.6-2.97 11.19-5.96 16.72-9.06 2.49-1.4 3.78-5.73 7.66-3.54 2.81 1.59 5.5 3.56 7.85 5.78 8.03 7.57 12.47 18.28 21.83 24.79 2.86 1.99 4.93 5.09 7.57 7.46.65.58 2.3.7 3.15.3 6.19-2.93 12-7.29 18.49-8.78 7.63-1.76 13.99-5.89 21.13-8.39 4.46-1.56 6.85-.23 7.88 4.38 1.18 5.32 2.46 10.62 3.7 15.93.41 1.74-3.92 7.91-6.12 8.58-2.17.66-4.41 1.12-6.57 1.8-1.05.33-2 .98-2.99 1.49.8.75 1.47 1.86 2.42 2.18 3.58 1.18 7.21 2.31 10.9 3.06 3.91.79 7.02 5.21 4.95 8.61-2.3 3.79-3.77 8.93-9.56 9.38-.31.02-.59.56-.88.85 5.35 1.5 1.98 5.44 1.89 8.08-.08 2.44-1.31 5.32-2.98 7.13-2.49 2.7-4.19 5.33-4.3 9.1-.02.72-2.49 2.18-3.39 1.9-3.67-1.14-7.16-2.86-10.75-4.29-7.76-3.07-13.33-9.68-21.05-12.9-2.29-.95-3.89-3.45-6.06-4.86-1.38-.9-2.35-1.09-2.31 1.71.06 5.21-.62 10.52-1.66 15.65-1.18 5.79-4.94 6.6-12.45 4.72-3.7-.93-7.35-4.21-11.61-1.56-.49-1.3-1.68-2.82-1.36-3.87 2.82-9.05 5.71-18.09 9.05-26.96 1.25-3.32-.97-5.84-2.46-5.6-3.91.64-4.63-2.67-6.6-4.15-4.63-3.48-9.44-6.99-13.13-11.38-3.25-3.87-5.27-8.84-7.42-13.51-.95-2.06-1.02-4.08-3.45-1.26-.46.54-1.24.83-1.9 1.16-3.6 1.78-6.95 3.22-7.67 8.27-.73 5.08-3.88 9.23-8.37 12.35-3.94 2.73-7.48 6.05-11.08 9.25-1.36 1.21-1.99 2.11-1.16 4.79 2.27 7.37 3.16 15.18 4.44 22.84 1.16 6.88 2.34 13.77 3.08 20.7.48 4.44.11 8.97.25 13.46.07 2.51.92 5.11.46 7.49-.47 2.45-1.5 5.54-3.35 6.82-5.07 3.51-10.62 6.36-16.14 9.16-1.57.8-3.74.31-5.54.77-1.44.38-2.74 1.31-4.11 2 1.15.84 2.2 2.2 3.46 2.42 7.55 1.3 15.15 2.38 22.74 3.45 8.51 1.2 17.08 2.07 25.55 3.55 6.07 1.06 6.89 2.7 5.99 8.92-1.6 11.07-.51 22.13.24 33.19.03.42.14.84.22 1.25.47-.26 1.04-.42 1.38-.79 4.6-4.9 11.49-4.41 15.24 1.1 2.24 3.29 1.82 2.58 5.11-.27 3.52-3.05 6.23-7.62 11.59-8.34.76-.1 1.29-1.44 2.09-1.93 1.63-1.01 3.37-1.83 5.06-2.75 1.18-.64 2.31-1.4 3.53-1.95 1.77-.81 3.57-1.59 5.43-2.18 2.56-.81 5.69-.75 7.68-2.25 3.31-2.5 6.42-1.7 9.77-1.04 5.53 1.09 11.42 1.31 16.5 3.46 8.83 3.73 15.36 9.99 17.5 20.12 1.28 6.06 1.1 11.91-.58 17.68-.6 2.07-2.69 3.69-4.02 5.57-2.12 3.01-3.94 6.26-6.32 9.04-2.68 3.12-5.83 5.84-8.8 8.72-1.19 1.16-2.57 2.16-3.62 3.44-2.47 3-4.19 6.91-9.2 6.26-.75-.1-1.68.67-2.44 1.17-4.17 2.72-8.19 5.69-12.51 8.13-2.05 1.15-4.66 1.31-7.02 1.9-.56.14-1.22.05-1.72.3-12.11 5.95-24.51 1.29-36.68.48-4.08-.27-8.15-4.31-11.75-7.22-3.3-2.67-6-6.1-8.86-9.29-.57-.63-.59-1.71-1.03-2.49-1.73-3.1-3.94-6.01-5.16-9.29-.85-2.29-.82-5.15-.39-7.61.37-2.14 1.62-4.01-1.05-5.46-.46-.25-1.07-1.06-.95-1.41 1.19-3.72-1.19-6.36-2.57-9.36-1.65-3.6-3.08-7.31-4.48-11.02-.76-2.02-1.13-4.17-1.88-6.19-.4-1.07-1.04-2.22-1.89-2.94-2.87-2.41-3.69-5.82-2.69-8.84 1.26-3.8-1.62-3-2.96-3.24-3.4-.6-6.92-.51-10.32-1.08-7.16-1.2-14.28-2.59-21.4-4-6.9-1.37-13.77-2.84-20.66-4.29-2.6-.55-5.17-1.24-7.78-1.65-.46-.07-1.21.82-1.61 1.41-.83 1.22-1.81 2.46-2.22 3.84-1.41 4.78-5.87 6.39-9.15 9.26-3.53 3.08-7.85 5.79-10.1 9.66-2.61 4.48-7.17 5.03-10.58 7.69-.91.72-2.08 1.22-2.76 2.11-2.56 3.31-4.84 2.22-7.4-.05-3.83-3.4-7.98-6.28-13.33-6.69l-.96-.88c-.04.45-.08.9-.12 1.35 1.93 7.5 3.87 14.99 5.8 22.49-.87 4.05-2.29 1.41-3.21.15-4.46-6.16-8.82-12.39-13.21-18.6-.08-2.85.38-5.85-.4-8.5-.79-2.69-2.61-6.92-4.3-7.09-3-.29-3.61-2.1-5.01-3.64-1.2-1.31-2.74-2.36-3.72-3.8-2.37-3.52-6.45-7.34-6.21-10.78.28-4.04 2.03-9.33 7.07-11.63.76-.35.95-1.96 1.4-2.99-2.08-.66-4.14-1.78-6.24-1.89-5.73-.3-9.75 3.02-13.25 7.11-.4 1.1-.57 2.38-1.25 3.26-4.36 5.61-6.4 12.18-8.03 18.91-.88 3.63-1.42 7.34-2.05 11.02-1.2 6.97-2.4 13.95-3.49 20.94-.15.95.31 2 .56 2.99 1.92 7.83 7.19 12.59 14.34 15.64 2.79.98 5.57 1.96 8.36 2.95 1.35-.12 2.7-.41 4.03-.33 9.91.54 19.32-1.86 28.65-4.75 2.24-.69 4.41-1.61 6.62-2.43.62 4.98-3.63 7.31-6.2 10.15-4.67 5.16-11.16 6.83-17.96 8.7-6.04 1.66-11.57 1.64-17.35 1.11-3.69-.34-7.26-1.89-10.96-2.34-4.99-.6-5.96-4.9-8.22-8.04-1.53-2.13-3.51-4.12-4.4-6.5-1.13-3.03-1.77-6.38-1.92-9.63-.43-9.31-.68-18.64-.66-27.96.01-6.55-.16-13.25 1.13-19.6 1.12-5.49 4.89-10.42 6.18-15.91 1.47-6.23 7.84-7.61 10.44-12.58 2.41-4.6 7.72-3.26 11.75-4.46 6.7-1.99 13.52.73 17.14 5.01 5.84 6.9 14.77 7.64 20.85 13.32 2.66 2.48 5.47 4.79 8.22 7.18.46.4 1.23 1.21 1.38 1.11 3.54-2.34 7.02-4.76 10.48-7.22.33-.23.64-1.13.62-1.14-2.72-1.63-2.89-6.11-6.96-6.2-5.34-.12-9.22-2.63-12.32-6.93-1.11-1.54-3.53-2.09-4.85-3.55-1.39-1.53-2.65-3.49-3.14-5.46-1.05-4.21-1.64-8.53-2.24-12.84-.15-1.1.71-2.37.47-3.41-.51-2.18-.86-5.46-2.31-6.17-5.9-2.87-6.84-8.01-7.37-13.49-.84-8.64.41-16.84 5.48-24.18.38-.55.39-1.68.09-2.32-1.42-3.09-2.7-6.33-4.62-9.1-2.19-3.15-7.67-4.48-5.09-10.08.05-.11-.86-.8-1.41-1.04-7.07-3.23-14.15-6.44-21.26-9.58-.51-.23-1.51-.03-1.95.35-6.26 5.44-12.45 10.96-18.68 16.43-.56.49-1.3.78-1.95 1.16-7.62 4.47-7.84 7.06-2 13.53 3.03 3.36 5.16 7.52 7.99 11.08 3.68 4.62 7.69 8.97 11.47 13.51 2.17 2.61 1.68 2.01-1.08 3.75-2.03 1.28-2.78 4.58-4.15 6.95-.68 1.19-1.32 2.47-2.26 3.43-.69.69-1.91.81-2.78 1.38-2.39 1.55-3.54 5.42-7.41 4.13-4.19-1.39-7.8-3.79-10.33-7.44-2.27-3.27-4.28-6.72-6.28-10.16-.71-1.22-1.03-2.46-2.1-.29-2.3 4.65-4.56 9.32-6.99 13.91-2.04 3.84-4.29 7.56-6.45 11.33-.92 1.61-1.87 3.2-2.76 4.82-.33.59-.43 1.33-.83 1.85-3.01 3.87-6.32 7.53-9.04 11.59-4.37 6.52-11.96 6.6-16.68.23-1.41-1.91-3.84-3.32-6.1-4.3-8.07-3.51-8.1-3.4-4.25-11.05.4-.79.43-1.77.63-2.66.4-1.25.81-2.51 1.21-3.76-.68.89-1.36 1.78-2.03 2.67zm234.36-150.02c-1.38.85-7.45 1.08-7.9 1.38-2.66 1.74-5.63 1.6-8.36 1.5-5.38-.2-7.09 1.04-6.46 5.87-.65 2.32-.91 4.84-2.01 6.92-4.82 9.16-9.46 18.29-17.08 25.82-6.83 6.74-14.75 10.72-23.66 12.89-3.86.94-8.17.08-12.27-.13-.69-.04-1.34-.98-2.01-1.51.6-.58 1.1-1.47 1.81-1.69 2.42-.73 4.94-1.16 7.38-1.83 1.63-.45 3.19-1.1 4.79-1.66-1.63-.06-3.26-.08-4.89-.18-7.42-.44-14.15-2.38-18.67-8.86-2.19-3.14-.9-5.94 2.99-6.75l.93.9c.32.29.64.58.97.87-.82 5.41 3.9 5.52 6.93 7.23 5.13 2.9 11.72 1.37 16.5 5.42.17.15.96-.4 1.44-.66 1.16-.64 2.33-1.25 3.45-1.96 1.16-.73 2.27-1.55 3.4-2.34-1.48-.03-2.96-.09-4.44-.07-.44 0-.87.4-1.3.38-6.88-.29-14.32 2.12-19.72-4.93-1.27-1.65-4.19-2.04-6.35-3.01-.17-.46-.35-.91-.52-1.37-.23-.34-.46-.68-.68-1.02-1.22-2.57-2.51-5.11-3.64-7.71-2.19-5.07-4.88-10.02-6.26-15.31-1.48-5.65-7.3-11.45-13.31-11.45-6.38 0-11.31-3.25-16.12-6.86-.45-.62-.89-1.24-1.34-1.85l.59 2.55c.02 1.19-.11 2.42.1 3.58.91 5.04 1.84 10.09 2.94 15.1.79 3.6 1.77 7.16 2.81 10.7.61 2.09 1.7 4.05 2.24 6.15.9 3.48 1.43 7.05 2.28 10.53 1.33 5.43 3.2 10.75 4.1 16.24.84 5.14 1.5 10.09 3.33 15.16 1.8 4.98 3.61 2.82 6.03 1.89 3.08-1.18 6.09-2.51 9.19-3.62.8-.29 1.81.02 2.73.06-.39.92-.55 2.07-1.21 2.72-1.38 1.4-3.22 2.37-4.47 3.86-.58.69-.68 2.83-.17 3.2 5.99 4.43 11.72 9.51 18.35 12.71 8.45 4.09 17.65 6.79 27.21 7.16 6.17.24 12.38.22 18.53-.23 4.91-.35 10.02-.8 14.57-2.48 8.94-3.29 17.94-6.78 26.2-11.46 7.8-4.42 14.74-10.39 21.88-15.91.67-.52.58-3.13-.11-4.08-2.29-3.16-4.5-6.03-4.18-10.39.19-2.58-1.15-5.25-1.55-7.91-.77-5.15-1.28-10.33-2.14-15.46-.12-.72-1.74-1.88-2.39-1.72-6.31 1.59-12.56 3.42-19.2 2.59-.53-.07-1.08.13-1.63.2.39.39.72.94 1.19 1.16 4.34 2.01 8.72 3.95 13.06 5.94.61.28 1.12.79 1.68 1.19-.58.3-1.21.95-1.72.86-5.72-1.05-12.4-.74-16.89-3.72-6.26-4.16-11.01-10.67-16.11-16.44-2.24-2.53-1.57-6.88.63-8.35 3.38 2.21 6.53 5.06 10.22 6.44 3.46 1.28 7.54 1.54 11.27 1.24 3.6-.29 7.14-1.76 10.63-2.92 3.39-1.12 6.75-2.41 10.02-3.84.8-.35 1.36-1.5 1.8-2.39.86-1.72 1.56-3.52 2.31-5.3.92-2.21 2.25-4.37 2.59-6.67.25-1.69-.81-3.57-1.29-5.37-.99.7-1.94 1.47-2.99 2.07-.49.28-1.49.02-1.72.36m-7.27 3.37c-1.59 1.13-1.47-.47-3.25.06m105.88-306.25c-1.34.49-2.91.69-3.98 1.53-3.85 3.05-7.05 7.63-11.38 9.22-8.43 3.1-11.15 12.14-18.71 15.97-2.94 1.49-4.82 4.98-7.34 7.4-1.05 1-3.25 1.27-3.68 2.36-2.55 6.48-8.73 9.53-13.01 14.33-2.91 3.26-6.03 6.33-9.03 9.51-.3.32-.56.76-.65 1.18-1.07 5.04-2.17 10.07-3.07 15.14-.17.94.56 2.03.88 3.05.78-.59 1.65-1.08 2.31-1.78 3.71-3.94 7.35-7.94 11.06-11.87.32-.34 1.04-.31 1.57-.45.14.61.62 1.46.38 1.79-4.97 6.94-9.17 14.78-15.4 20.32-3.41 3.03-5.84 5.07-6.3 9.66-.27 2.7-2.08 5.21-2.87 7.9-1.25 4.3-2.26 8.66-3.23 13.03-.07.3 1.47 1.3 1.55 1.23 3.1-2.91 6.53-5.59 9.08-8.94 8.24-10.81 16.23-21.82 24.12-32.89 1.82-2.55 2.67-5.78 4.33-8.47 3.25-5.27 6.88-10.31 10.13-15.57 4.07-6.59 7.77-13.42 11.91-19.96 3.95-6.23 8.31-12.2 12.41-18.33 3.24-4.84 6.37-9.75 9.55-14.63.5-.63 1.01-1.27 1.51-1.9-.34-.19-.93-.59-.98-.53-.45.52-.8 1.12-1.18 1.7zm-54.84 592.43c4.52.29 9.04.49 13.55.88 6.22.54 11.72-1.45 17.67-3.06 10.38-2.82 17.55-10.41 26.85-14.68 6.14-2.81 10.05-10.23 15.43-15.07 2.85-2.57 3.22-6.96 7.94-8.49 2.32-.75 4.68-6.05 4.39-9.03-.35-3.6-3.16-7.17-5.53-10.28-1.76-2.33-4.28-5.14-6.85-5.6-5.78-1.03-10.43-5.42-17.53-3.46-6.15 1.69-12.68 1.66-17.84 6.16-5.11-1.07-7.89 3.11-11.12 5.51-5.61 4.19-10.95 8.93-15.58 14.17-2.26 2.55-5.97 4.89-5.35 9.49.2 1.48-.66 3.11-1.04 4.68-1.23-1.21-2.75-2.24-3.62-3.67-.85-1.38-1.15-3.13-1.49-4.76-.8-3.86-1.35-7.77-2.25-11.6-.32-1.35-1.37-2.52-2.09-3.77-1.05.7-2.19 1.29-3.14 2.11-2.67 2.29-4.99 5.14-7.96 6.91-3.79 2.26-7.16 9.35-5.36 13.19 1.14 2.44 2.38 4.84 3.8 7.13 1.97 3.16 4.68 5.96 6.11 9.32 2.45 5.73 4.75 11.32 11 13.94zm-51.69-378.58c-3.97 4.41-2.65 10.36-4.41 15.41-.09.25.67.89 1.14 1.18.14.09.87-.37.94-.66 1.25-5.33 2.45-10.68 3.66-16.02 2.24-2.03 2.3-4.92 3.29-7.44 2.47-6.25 6.05-12.22 10.05-17.67 5.88-8.02 8.92-17.81 16.03-25.03 1.74-1.77 2.9-4.08 4.48-6.03 2.59-3.2 6.19-5.91 7.76-9.52 3.26-7.47 9.54-12.23 14.59-18.04 5.44-6.26 11.53-11.97 17.42-17.82 7.96-7.91 15.97-15.77 24.04-23.56 1.26-1.21 3.1-1.79 4.45-2.93 4.04-3.39 7.95-6.95 11.96-10.38 4.08-3.49 8.21-6.92 12.32-10.36 4.32-3.62 8.84-7.04 12.93-10.92 3.54-3.36 6.61-7.23 9.85-10.9.4-.45.63-1.05.93-1.58-.83-.07-1.84-.47-2.46-.15-7.23 3.83-14.49 7.6-21.55 11.73-4.87 2.85-9.45 6.2-14.12 9.37-6.94 4.72-13.86 9.45-20.76 14.23-2.82 1.96-5.29 4.88-8.4 5.89-6.24 2.01-9.56 7.48-14.49 10.99-6.81 4.85-12.64 11.06-19.02 16.54-5.2 4.47-11.34 8.1-15.61 13.31-2.8 3.42-5.56 6.53-8.98 9.27-2.55 2.05-4.72 4.63-6.77 7.2-1.16 1.45-2.01 3.29-2.54 5.09-.96 3.29-1.57 6.67-2.33 10.02-.2.89-.39 1.79-.58 2.68.83-.4 1.93-.58 2.45-1.22 1.83-2.27 3.23-4.91 5.21-7.02 4.83-5.15 9.83-10.14 14.88-15.08 6.55-6.41 13.17-12.73 19.85-19 .79-.74 2.1-.92 3.17-1.36-.26.84-.6 1.68-.73 2.54-.03.23.62.51.86.84.9 1.22 1.76 2.47 2.63 3.71-1.78.52-4.43 2.03-5.18 1.38-2.63-2.31-3.58 0-4.6 1.27-5.46 6.82-10.73 13.79-16.17 20.62-1.94 2.43-4.15 4.65-6.25 6.95-3.33 3.64-6.39 7.59-10.09 10.81-3.96 3.46-11.24 3.79-10.24 11.64.06.48-.66 1.01-.87 1.57-.97 2.58-2.12 5.13-2.77 7.8-2.28 9.34-4.41 18.73-6.5 28.11-.17.77.31 1.69.49 2.54zm-89.4 235.42c-.54-.27-1.11-.81-1.62-.76-5.96.58-11.92 1.24-17.87 1.95-.03 0 .06.92.09 1.41.59 4.19.81 8.49 1.98 12.51.34 1.16 3.39 1.53 5.19 2.28.68.28 1.33.62 2.01.91 5.84 2.49 11.69 4.98 17.55 7.41.27.11.76-.42 1.17-.48 1.31-.19 2.73-.66 3.95-.37 6.16 1.45 12.49 3.19 17.85-1.46 1.96-1.7 3.58-1.98 5.49-1.34 3.29 1.1 6.18 1.83 9.74.15 2.66-1.26 6.12-.7 9.17-1.27 3.46-.65 6.92-1.46 10.25-2.59 3.97-1.34 8.32-5.07 11.59-4.22 5.61 1.45 9.59-2.06 14.41-2.2.56-.02 1.58-.91 1.57-1.38-.05-2.34-.17-4.72-.62-7.02-1.53-7.68-3.31-15.29-2.94-23.25.47-10.29-1.69-20.75 2.33-30.79.29-.73-.05-1.71-.09-2.57-.92.28-1.92.43-2.76.87-3.82 2-7.42 4.55-11.41 6.04-7.09 2.65-14.42 4.7-21.65 6.98-9.17 2.89-18.64 2.6-28.08 2.75-1.88.03-3.81.36-5.57.99-.29.11.27 2.45.34 3.76.29 5.41-.81 10.53-3.19 15.42-1.96 4.05-3.51 8.26-8.11 10.37-3.71 1.7-7.18 3.91-10.75 5.9zm139.12-529.94-.38-.05c0-2.58.08-5.16-.05-7.73-.04-.8-.66-1.57-1.01-2.35-.7.43-1.55.72-2.07 1.31-2.45 2.79-2.48 6.42-3.54 9.66-1.96 5.98-5.27 11.47-6.62 17.91-1.39 6.66-4.32 13-6.42 19.53-2.64 8.21-5.01 16.51-7.69 24.71-1.83 5.62-4.11 11.09-5.97 16.71-1.33 4.02-1.79 8.4-3.55 12.19-2.93 6.32-6 12.38-7.84 19.29-2.89 10.83-7.73 21.13-11.22 31.82-2.19 6.7-3.39 13.71-5.12 20.56-.2.79-1.03 1.39-1.48 2.14-.67 1.11-1.41 2.22-1.85 3.42-1.51 4.15-2.89 8.34-4.35 12.51-1.54 4.41-3.31 8.76-4.63 13.23-1.59 5.37-2.63 10.9-4.27 16.25-1.48 4.84-3.69 9.47-5.16 14.32-1.93 6.38-3.36 12.91-5.17 19.33-1.53 5.39-3.25 10.72-5 16.04-.42 1.27-1.35 2.35-1.9 3.59-.44 1-.72 2.09-.96 3.16-.26 1.15-.2 2.39-.6 3.47-1.92 5.3-3.99 10.54-5.91 15.84-2.04 5.63-4.01 11.29-5.91 16.97-1.72 5.13-3.36 10.3-4.86 15.5-.16.57.85 1.48 1.31 2.23 2.89-2.64 6.13-1.52 9.56-1.6 6.58-.16 13.11-2.2 19.67-3.4 5.48-1 11.01-1.76 16.43-3.03 1.1-.26 2.21-2.24 2.54-3.61.57-2.43.23-5.09.83-7.51 1.96-7.91 4.15-15.77 6.3-23.63 2.86-10.49 2.78-21.75 8.21-31.58.33-.59.29-1.48.18-2.19-.8-5.22 1.11-9.61 3.95-13.81.88-1.3 1.45-2.93 1.75-4.5 1.33-6.94 2.13-14.01 3.85-20.85 1.63-6.5 4.31-12.73 6.23-19.17.98-3.28 1.2-6.79 2-10.13.51-2.15 1.48-4.18 2.22-6.27 1-2.83 2.31-5.61 2.9-8.53 1.19-5.95 1.85-12 3-17.95.53-2.75 1.92-5.33 2.55-8.07 1.31-5.72 2.29-11.52 3.56-17.25.87-3.94 2.15-7.8 2.99-11.74 1.44-6.77 3.06-13.54 3.89-20.4.81-6.71-.84-13.76 3.12-19.98-4.05-5.28 1.33-10.08.94-15.44-.39-5.43 2.33-11.14 2.75-16.94.82-11.33 1.85-22.64 2.79-33.96zm-111.11 90.01 1.12-.25c-.46-1.35-.73-2.8-1.41-4.03-1.46-2.66-2.34-5.19-.92-8.26 1.47-3.16-2.53-6.76.57-9.93-.23-.17-.63-.31-.67-.52-.37-1.84-.79-3.69-.95-5.56-.12-1.37.63-3.77.13-4.02-4.58-2.31-3.38-6.24-3.29-9.97.05-2.06-.31-4.13-.56-6.19-.29-2.36-.67-4.72-.98-7.08-.6-4.68-1.15-9.36-1.76-14.03-.03-.25-.42-.43-.55-.7-.72-1.47-1.41-2.95-2.1-4.44-.43-.93-.84-1.87-1.26-2.81-.36 1.01-.91 2-1.05 3.04-1.09 8.37-2.01 16.76-3.14 25.12-2.02 14.93-4.7 29.79-6.05 44.77-1 11.04-.03 22.24-.48 33.35-.29 7.18 1.3 14.49-1.2 21.55-.15.41-.21.87-.22 1.31-.16 9.35-.23 18.7-.47 28.05-.1 4.09-.55 8.18-.75 12.27 0 .16.99.36 1.52.54 1.29.44 2.59.89 3.88 1.33-.46 1.12-.91 2.24-1.37 3.36-1.12-.62-2.27-1.2-3.35-1.87-.32-.2-.46-.67-.69-1.02-.08.41-.17.81-.23 1.23-.52 3.87-1.22 7.72-1.52 11.61-.5 6.49-.85 12.99-1.06 19.5-.1 3.37-.09 6.82.52 10.11.41 2.22 2.04 4.19 2.98 6.33 1.56 3.53 2.95 7.13 4.53 10.65 2.64 5.85 5.6 11.57 8.02 17.51 3.15 7.73 5.88 15.64 8.87 23.44.37.95 1.25 1.71 1.9 2.56.72-1.19 1.74-2.29 2.09-3.58.88-3.31.83-7 2.29-9.98 2.97-6.08 2.84-13.45 7.84-18.65.09-.09.07-.28.11-.42 1.83-6.19 3.35-12.49 5.56-18.54 2.53-6.97 5.2-13.76 2.26-21.25-.64-1.63-1.3-3.3-1.56-5.01-1.23-7.82-2.43-15.66-3.44-23.51-.69-5.33-.83-10.74-1.65-16.04-.78-5.05-2.08-10.03-3.27-15.01-.83-3.47-2.26-6.85-2.71-10.36-1.12-8.84-1.84-17.73-2.72-26.6-.93-9.33-1.87-18.67-2.81-28zm-205.57 19.67c-.36.72-1.08 1.61-.9 1.86 3.39 4.78 6.78 9.56 10.38 14.19 2.85 3.66 6.62 6.74 8.83 10.72 4.92 8.83 11.84 16.06 17.86 24 3.33 4.39 6.71 8.75 10.07 13.12.33.44.57.98.98 1.32 1.82 1.48 3.93 2.68 5.48 4.4 2.26 2.52 4.13 5.39 6.15 8.13.87 1.19 2.26 2.32 2.45 3.63.61 4.15 3.63 6.38 6.19 9.15 2.29 2.48 4.1 5.43 5.96 8.28 2.98 4.54 4.94 10.29 8.97 13.45 4.47 3.52 6.46 8.46 10.15 12.25 1.55 1.59 3 3.31 4.32 5.1 2.63 3.57 4.88 7.45 7.76 10.78 3.43 3.97 5.86 8.6 9.94 12.24 3.79 3.38 5.87 8.61 8.94 12.87 1.27 1.77 3.98 2.83 4.59 4.69 1.84 5.62 6.06 8.99 10.17 12.62 1.08.95 1.84 2.26 2.73 3.42 2.87 3.69 5.78 7.36 8.61 11.09 3.04 4.01 8.28 6.93 6.71 13.34-.07.3 1.52 1.46 2.36 1.48 6.4.17 12.82.32 19.22.14 5.22-.14 10.59 1.09 15.64-1.32.39-.19 1.09.36 1.62.32.85-.05 1.69-.31 2.53-.48-.29-.99-.45-2.06-.93-2.95-.3-.56-1.25-.76-1.63-1.31-4.28-6.23-8.31-12.65-12.8-18.72-6.69-9.05-13.6-17.96-20.61-26.76-6.09-7.64-12.45-15.07-18.71-22.58-6.9-8.27-13.76-16.57-20.77-24.75-6.01-7.01-12.01-14.05-18.4-20.71-6.19-6.46-12.91-12.4-19.29-18.68-2.28-2.25-4.09-4.97-6.37-7.22-5.94-5.83-12.1-11.43-18.02-17.28-3.29-3.26-6-7.11-9.42-10.21-5.9-5.35-12.02-10.49-18.28-15.41-8.95-7.03-18.11-13.81-27.2-20.66-1.55-1.17-3.23-2.16-5.28-3.53zm135.94 346.22c-1.75-6.09-1.57-13-9.29-15.2-1.43-.41-3.01-.53-4.25-1.24-3.6-2.05-7.99-3.63-10.33-6.72-2.57-3.39-3.51-1.2-5 .08-4.65 4.02-9.05 8.33-13.83 12.19-5.12 4.14-10.58 7.86-15.84 11.84-5.19 3.93-10.01 8.47-15.55 11.81-8.62 5.19-17.66 9.7-26.63 14.28-3.13 1.6-6.59 2.51-9.88 3.8-2.95 1.15-5.85 2.44-8.8 3.58-4.96 1.91-10.03 3.57-14.87 5.74-1.29.58-3.02 3.25-2.66 3.87 1.53 2.66 1.73 7.49 6.8 5.99 2.7-.8 5.25-2.14 7.87-3.22 5.92-2.46 11.77-5.07 17.78-7.29 2.62-.97 4.12.61 2.67 3.11-1.9 3.27-3.95 6.75-6.78 9.14-6.3 5.31-13.14 9.99-19.75 14.94-2 1.5-5.01 2.67-5.68 4.63-.59 1.74 1.46 4.35 2.28 6.6.26.7.17 1.55.5 2.21 2.39 4.81 4.84 5.1 8.4 1.54 3.9-3.9 8.04-7.58 12.23-11.16 4.78-4.09 9.67-8.05 14.66-11.87 1.04-.79 2.72-.73 4.11-1.07.11 1.41.82 3.21.22 4.18-3.11 4.99-6.42 9.88-9.94 14.6-3.77 5.05-7.73 9.97-11.84 14.74-1.81 2.1-.48 2.09 1.04 2.43 4.3.96 8.38 2.16 11.26 6.04.46.62 3.91.25 4.52-.65 4.76-6.96 9.1-14.2 13.69-21.28 1.68-2.58 3.75-4.91 5.49-7.46 3.06-4.48 5.46-9.43 10.11-12.73 1.34-.95 2-2.86 2.92-4.36.87-1.4 1.68-2.83 2.51-4.25 1.19.92 2.71 1.62 3.53 2.81 3.6 5.21 6.95 10.58 10.52 15.81.47.68 2.08 1.45 2.45 1.18 1.76-1.27 3.65-2.65 4.79-4.44 1.25-1.97 3.02-5.11 2.28-6.55-1.63-3.12-4.85-5.38-7.17-8.19-5.21-6.29-11.13-12.05-12.51-20.8-.81-5.15-.54-8.25 4.18-10.54 4.51-2.19 8.12-5.23 11.41-8.76 3.17-3.4 6.27-6.91 9.01-10.65 2.22-3.03 9.83-6.45 13.49-5.31 1.75.54 3.4 1.44 5.05 2.27 3.87 1.93 7.72 3.9 11.57 5.87.85.43 1.67.92 2.5 1.38.26-.98.51-1.97.76-2.91zm-4.45-241.86c-.15.04-.3.07-.46.11.21 1.01.09 2.29.68 2.97 3.59 4.16 3.21 11.45 10.16 12.99.48.11.86.82 1.2 1.32 2.66 3.84 5.14 7.82 7.96 11.53 5.38 7.08 10.8 14.15 16.51 20.96 4.48 5.35 9.45 10.3 14.15 15.47.8.88 1.36 1.98 2.02 2.98 5.01 7.62 10.01 15.24 15.05 22.84.29.44.92.67 1.39.99.13-.57.32-1.13.39-1.71.27-2.29.45-4.59.76-6.87.42-3.01 3.11-6.61-2.35-7.93-.59-.14-1.09-1.06-1.46-1.71-2.69-4.65-5.54-9.23-7.94-14.03-1.73-3.45-2.61-7.33-4.28-10.81-2.5-5.22-5.5-10.21-8-15.43-1.08-2.25-1.08-5.02-2.16-7.26-2.61-5.42-5.8-10.57-8.32-16.03-2.42-5.26-4.35-10.75-6.4-16.17-1.93-5.09-3.73-10.22-5.61-15.33-.3-.81-.68-1.58-1.04-2.36-2.39-5.13-4.39-10.5-7.3-15.31-2.15-3.57-1.74-7.88-4.86-11.31-2.63-2.89-3.42-7.5-4.91-11.39-.75-1.96-.81-4.28-1.89-5.99-6.16-9.69-7.89-21.49-15.19-30.73-2.91-3.68-3.73-8.97-5.76-13.4-1.55-3.39-3.46-6.62-5.33-9.85-.38-.66-1.3-1.01-1.97-1.51-.12.86-.45 1.75-.31 2.57 1.4 7.94 2.78 15.88 4.38 23.78 1.04 5.12 2.39 10.17 3.67 15.24 1.81 7.17 3.93 14.27 5.46 21.5 2.06 9.71 3.7 19.52 5.5 29.29 1.21 6.57 2.29 13.17 3.59 19.73.73 3.67 1.77 7.27 2.68 10.9zm253.81 253.5c-.03.16-.05.31-.08.47-3.04-.4-6.35-.2-9.02-1.41-2.02-.91-3.97-3.43-4.58-5.61-.74-2.64 2.24-3.03 4.19-3.56 7.81-2.15 15.65-4.15 23.43-6.38 1.17-.33 3.02-1.66 2.95-2.35-.4-3.74-1.19-7.47-2.16-11.11-.17-.63-2.07-1.44-2.79-1.17-2.55.99-4.87 2.55-7.39 3.64-5.15 2.23-10.36 4.31-15.56 6.41-1.56.63-3.22 1.03-4.77 1.7-2.35 1.01-6.35 1.86-6.61 3.31-.65 3.74-2.23 2.32-4.02 1.69-2.57-.9-5.19-1.68-7.67-2.76-3.28-1.42-6.63-2.8-9.61-4.71-2.73-1.75-5-4.22-7.53-6.3-.91-.75-2.25-1.08-2.97-1.96-4.74-5.78-9.37-11.64-14-17.5-.53-.67-1.15-1.48-1.21-2.26-.27-3.86-2.22-2.66-4.23-1.54-4.45 2.48-9.05 4.72-13.32 7.48-4.24 2.74-9.03 5.52-6.12 12.1.29.67-.31 1.74-.53 2.62-.61 2.41.04 3.28 2.48 2.09 4.29-2.11 8.6-4.18 12.87-6.34 1.47-.75 2.92-2.27 3.91.43 2.17 5.92 4.63 11.53 11.47 13.61.93.28 1.48 1.81 2.2 2.76 1.61 2.15 2.97 4.55 4.87 6.41 3.66 3.58 7.81 6.68 11.38 10.34 2.15 2.2 3.59 5.09 5.35 7.68-1.17.79-2.36 1.55-3.5 2.39-.2.14-.16.58-.29.85-3.26 6.88-6.5 13.77-9.83 20.62-.87 1.78-.4 2.68 1.41 3.11 3.16.74 6.32 1.54 9.51 2.13.42.08 1.42-.87 1.51-1.45.81-4.97 2.07-9.97 1.98-14.94-.07-4.1 1.46-7.53 4.55-8.4 2.95-.84 7.02.21 9.93 1.72 5.16 2.68 9.87 6.26 14.67 9.6 4.09 2.85 8 5.95 12.05 8.85 1.31.94 2.81 1.62 4.23 2.42.57-1.3 1.08-2.64 1.74-3.89.84-1.6 1.86-3.11 2.71-4.7 1.21-2.25 7.32-6.72-1.95-4.46-.45.11-1.07-.5-1.63-.74-5.41-2.37-10.9-4.56-16.2-7.16-2.93-1.44-5.73-3.32-8.18-5.47-.89-.78-.56-2.94-.78-4.47 1.17.02 2.46-.27 3.48.13 4.97 1.95 9.88 4.04 14.77 6.18 4.01 1.75 7.4-.27 10.99-1.51 3.11-1.08 6.18-2.14 7.48-5.51.19-.5-.6-2-1-2.03-6.18-.43-12.37-.7-18.56-1.01zm-174.08 102.36c-.06.23-.11.46-.17.68-1.33.19-2.75.15-3.96.64-.8.33-1.3 1.41-1.93 2.16.84.13 1.68.2 2.51.39 1.82.41 3.63.89 5.45 1.32.99.24 1.98.48 2.98.65 5.75.96 11.53 1.75 17.25 2.88 7.89 1.56 15.71 3.4 23.58 5.05 1.26.27 2.99-.31 3.83.35 4.11 3.22 8.91 2.92 13.65 3.64 2.77.42 5.56 2.53 7.71 4.55 1.44 1.35 1.65 3.95 2.65 5.86 1.99 3.78 4.44 7.35 6.16 11.24 1.81 4.08 2.93 8.46 4.5 12.66.3.8 1.33 1.94 1.95 1.89 3.39-.26 6.71-6.18 5.62-9.65-3.56-11.28-6.39-22.56-1.64-34.29.41-1.01-.65-3.71-1.48-3.94-2.94-.8-6.07-.85-9.13-1.21-9.63-1.14-19.3-2.03-28.88-3.5-10.33-1.59-20.34-5.38-31.18-2.87-2.8.65-5.55.67-7.77 2.76-.43.41-1.1.97-1.55.88-3.4-.64-6.77-1.42-10.14-2.15zm-63.98-60.84c-.44 11.31 2.13 14.8 13.56 15.85 6.24.58 12.7-1.7 19.1-2.17 4.11-.3 6.31-2.9 7.93-5.79 1.9-3.4 3.32-7.22 4.14-11.03.91-4.26 1.37-8.75.97-13.04-.09-1-4.56-1.35-6.79-2.46-5.99-2.99-7.48-2.63-11.57 2.76-2.52 3.32-5.33 6.42-8.09 9.55-.53.6-1.42.88-2.14 1.31-.16-.98-.77-2.17-.41-2.9 1.88-3.86 3.87-7.67 6.08-11.34 1.46-2.43 6.13-4.92-.79-6.2-.51-.09-1.04-.68-1.35-1.17-1.55-2.48-3.28-2.15-5.32-.58-8.68 6.73-15.59 14.46-15.33 27.23zm-30.34-222.15c-1.43-2.03-2.39-3.35-3.3-4.7-3.07-4.55-6.03-9.17-9.21-13.64-1.99-2.8-4.73-5.15-6.37-8.12-2.48-4.5-6.25-7.15-10.77-8.9-5.43-2.11-10.88-4.28-16.51-5.73-6.09-1.57-11.16-4.87-16.42-8-7.82-4.64-16.68-5.96-25.43-7.49-.9-.16-1.95.55-2.93.85.52.63.96 1.35 1.58 1.86 3.43 2.86 6.71 5.99 10.42 8.44 6.23 4.13 12.7 7.89 19.15 11.67 7.79 4.57 15.68 8.98 23.51 13.47 4.85 2.78 9.78 5.43 14.5 8.41 3.87 2.45 7.42 5.4 11.24 7.93 2.44 1.62 5.08 2.95 7.72 4.23.6.29 1.56-.14 2.8-.29zm73.75 106.19c-1.07-.88-8.51-.33-9.51-1.48-2.14-2.44-5.5 3.15-10.28.97-.73-.33-1.99-.7-3.51-.66-.66.02-1.91.98-1.84 1.22.64 2.3 1.33 4.62 2.36 6.76 1.56 3.25 3.17 6.51 5.18 9.48 1.43 2.11 3.47 3.84 5.42 5.54.98.86 3.03.99 3.42 1.94 2.42 5.86 8.39 2.78 11.61 5.07 9.07-.99 16.46-4.02 21.51-11.46 1.25-1.84 2.92-3.4 4.48-5 2.23-2.29 4.73-4.35 6.72-6.83.74-.92.36-2.75.48-4.17-1.61.1-3.27.02-4.83.37m-54.31 214.2c1.66-.91 3.42-1.75 5.06-2.79 1.69-1.07 3.33-2.24 4.85-3.53 1.88-1.59 3.62-3.34 5.42-5.03-1.62-.65-3.24-1.32-4.87-1.95-.27-.1-.75.12-.89-.03-3.75-4.2-7.51-2.6-11.37-.16-.5.31-1.38 0-2.09-.01.14-.76.46-1.54.39-2.29-.11-1.26-.07-2.81-.78-3.69-1.48-1.85-3.55-3.22-5.13-5.01-3.41-3.89-9.58-4.48-11.52-10.4-.7-2.13-3.37-5.63-6.8-2.45-3.21 2.98-5.94 6.47-8.99 9.64-1.84 1.91-.43 2.46 1 3.46 7.69 5.36 15.28 10.86 22.96 16.24 3.42 2.4 6.94 4.65 10.44 6.94.61.4 1.32.62 2.3 1.08zm-45.8-309.55c-5.04 2.16-9.77 4.01-14.31 6.22-2.26 1.1-4.32 2.72-6.25 4.37-3.01 2.57-2.77 4.5.86 5.89 3.17 1.21 6.57 1.83 9.82 2.84 2.27.71 2.21-.23 2.46-2.16.23-1.73 1.51-4.15 2.94-4.73 4.79-1.94 9.87-3.15 14.81-4.75.48-.16.71-1.07 1.06-1.63-3.79-2.01-7.58-4.02-11.39-6.04zm165.4-18.52c-1.8-.21-5.28 3.52-4.81 5.26.09.35.71.74 1.13.81 3.97.66 8.02 2.01 11.93 1.68 5-.42 8.73.66 11.72 4.68.38.51 1.9.73 2.52.39 1.25-.69 2.24-1.85 3.33-2.82-.64-.44-1.36-.79-1.9-1.33-6.64-6.56-16.1-5.34-23.9-8.68zm-138.75 202.6c-.09.02-.18.03-.28.05.2.96.39 1.92.59 2.88.84-.58 1.78-1.06 2.49-1.77 1.17-1.17 2.15-2.52 3.27-3.74 1.56-1.69 4.79-3.91 4.44-4.86-.8-2.18-3.2-3.88-5.19-5.48-1.06-.86-3.13-1.92-3.82-1.47-1.21.79-2.34 2.66-2.37 4.09-.06 3.43.54 6.86.87 10.3zm-26.24-277.24c-.11.12-.29.24-.28.32.04.21.17.4.27.6.1-.1.3-.21.28-.29-.04-.21-.17-.4-.28-.63z"/><path d="m189.03 550.94c-3.81 3.32-8.44 3.48-13.12 3.29-2.1-.08-4.19-.45-6.28-.69-.03-.49-.12-1.41-.09-1.41 5.95-.7 11.9-1.37 17.87-1.95.51-.05 1.08.49 1.62.76z"/><path d="m278.42 315.53c.44-.03.88-.06 1.33-.09-1.21 5.34-2.4 10.69-3.66 16.02-.07.3-.8.75-.94.66-.47-.28-1.22-.93-1.14-1.18 1.76-5.06.44-11 4.41-15.41z"/><path d="m384.95 101.68c.38-.58.73-1.18 1.18-1.7.05-.06.64.34.98.53-.5.63-1.01 1.27-1.51 1.9-.22-.25-.43-.49-.65-.74z"/><path d="m139.47 401.65c-.2-.85-.39-1.7-.59-2.55.45.62.89 1.24 1.34 1.85z"/><path d="m180.84 444.61c-.32-.29-.64-.58-.97-.87.12-.14.24-.29.36-.44.17.46.35.91.52 1.37l.08-.07z"/><path d="m239.48 312.57c1.61-5.26 2.95-9.7 4.32-14.14 3.77-12.2 7.44-24.42 11.36-36.57 3.58-11.12 7.65-22.08 11.08-33.24 2.26-7.37 3.29-15.12 5.71-22.42 4.29-12.96 5.04-26.92 11.45-39.28 2.54-4.9 4.26-10.22 6.49-15.29.35-.79 1.39-1.28 2.12-1.91-.02.8.13 1.66-.1 2.4-2.14 6.74-4.51 13.4-6.49 20.18-2.31 7.89-4.27 15.88-6.46 23.8-3.48 12.55-6.84 25.14-10.62 37.61-2.41 7.95-5.67 15.63-8.23 23.54-4.79 14.82-9.33 29.73-14.04 44.59-1.14 3.59-2.47 7.12-3.86 10.61-.31.79-1.24 1.33-1.89 1.98-.4-.86-.79-1.72-.85-1.84z"/><path d="m301.76 123.29c-2.02 1.49-3.27 3.08-4.11 2.88-1.26-.29-2.71-1.67-3.15-2.91-.24-.67 1.61-2.97 2.26-2.87 1.45.23 2.74 1.49 5 2.89z"/><path d="m273.27 266.13c-2.3 1.45-3.6 2.73-5.09 3.01-.78.15-1.89-1.46-2.86-2.28 1.32-1.12 2.52-2.54 4.04-3.2.6-.26 1.94 1.17 3.9 2.47z"/><path d="m232.71 321.51c1.45 2.15 2.78 3.32 2.91 4.6.08.84-1.58 1.86-2.47 2.79-.96-1.14-2.32-2.15-2.73-3.46-.23-.74 1.09-1.97 2.29-3.93z"/><path d="m285.53 210.53c-1.31-2.02-2.56-3.09-2.51-4.1.04-1 1.38-1.95 2.15-2.93.96 1.12 2.21 2.12 2.74 3.41.22.55-1.08 1.72-2.38 3.62z"/><path d="m206.57 180.52c-.45-.71-1.51-2.13-2.26-3.7-.44-.91-.85-2.45-.41-3.03.71-.93 2.15-1.74 3.3-1.77.7-.02 1.96 1.45 2.08 2.36.74 5.57 1.03 11.19 1.84 16.75 1.24 8.42 3.05 16.77 4.13 25.21 1.06 8.32 1.45 16.73 2.28 25.08.06.64 1.13 1.46 1.9 1.72 2.72.92 3.18 2.2 1.63 4.74-.9 1.46-1.32 3.45-1.3 5.19.11 7.63.53 15.25.63 22.88.01.91-1.04 2.2-1.93 2.62-.61.29-2.22-.38-2.64-1.07-2.46-4.02-4.85-8.1-3.67-13.2.21-.92-.05-2.1-.47-2.98-2.27-4.73.63-10.5-3.14-14.98-.59-.7-.13-2.36 0-3.57.3-3.02.49-5.75-4-5.35-.79.07-2.36-1.34-2.43-2.16-.09-1.1.71-3.11 1.5-3.32 3.14-.82 3.38-2.96 3.3-5.51-.23-7.19-.43-14.39-.66-21.58-.14-4.45-.42-8.9-.4-13.35.01-3.27.41-6.54.72-10.98z"/><path d="m206.58 103.98c2.99-.06 6.72 3.63 6 5.36-.55 1.35-2.4 2.93-3.76 3.02-3.31.21-4.84-2.33-4.64-5.28.09-1.28 1.86-2.44 2.41-3.1z"/><path d="m224.4 212.93c-1.47 1.05-2.86 2.73-4.42 2.91-.98.11-2.96-1.95-3.15-3.23-.28-1.92.21-4.67 3.15-4.28 1.56.21 2.95 1.74 4.41 2.67 0 .64 0 1.29.01 1.93z"/><path d="m138.22 280.61c-2.34-1.38-5.22-2.29-6.94-4.23-6.79-7.65-13.4-15.48-19.72-23.53-3.55-4.53-6.4-9.6-9.57-14.43-5.13-7.82-10.28-15.63-15.41-23.45-1.73-2.64-3.48-5.27-5.12-7.96-.33-.54-.18-1.38-.26-2.08.73.26 1.71.31 2.15.82 4.96 5.84 9.85 11.76 14.75 17.66 5.51 6.64 10.98 13.31 16.55 19.9 4.35 5.14 8.81 10.19 13.26 15.25 2.53 2.88 5.42 5.49 7.65 8.58 2.07 2.86 3.49 6.19 5.16 9.33 1.17 2.2.74 3.51-2.5 4.15z"/><path d="m156.06 290.49c1.49 1.68 4.04 3.23 4.26 5.07.4 3.34-2.42 4.98-5.56 5.21-3.34.23-5.93-1.85-5.89-4.84.04-3.34 2.79-5.07 6.49-4.47.24-.32.47-.65.71-.97z"/><path d="m171.89 320.69c-2.11.94-3.28 1.93-4.29 1.79-.97-.14-1.76-1.46-2.64-2.26.9-.83 1.85-2.38 2.7-2.33 1.14.07 2.21 1.37 4.23 2.8z"/><path d="m146.16 191.27c1.67 1.82 6.4-1.25 6.36 3.83-.02 2.68-3.93 6.15-6.57 5.54-2.48-.57-4.74-1.71-4.33-5.16.32-2.74 1.24-4.42 4.54-4.21z"/><path d="m114.72 294.84c-1.48-.11-2.28.07-2.77-.24-7.71-4.87-15.43-9.72-22.98-14.81-.94-.64-.97-2.63-1.43-3.99 1.14.28 2.48.27 3.38.89 7.18 4.92 14.29 9.94 21.37 15.01.79.56 1.25 1.58 2.43 3.14z"/><ellipse cx="209.16" cy="412.04" rx="16.2" ry="14.69"/><ellipse cx="269.29" cy="408.06" rx="16.2" ry="14.69"/></g></svg>